<svg xmlns="http://www.w3.org/2000/svg" xmlns:xlink="http://www.w3.org/1999/xlink" width="1080" zoomAndPan="magnify" viewBox="0 0 810 809.999993" height="1080" preserveAspectRatio="xMidYMid meet" version="1.0"><path fill="#1a4789" d="M 810.039062 405.011719 C 810.039062 411.636719 809.875 418.261719 809.550781 424.882812 C 809.226562 431.503906 808.738281 438.109375 808.089844 444.707031 C 807.4375 451.304688 806.628906 457.878906 805.65625 464.4375 C 804.683594 470.992188 803.550781 477.519531 802.257812 484.023438 C 800.964844 490.523438 799.511719 496.988281 797.902344 503.417969 C 796.289062 509.847656 794.523438 516.234375 792.597656 522.578125 C 790.675781 528.917969 788.597656 535.210938 786.363281 541.453125 C 784.128906 547.691406 781.746094 553.875 779.210938 560 C 776.671875 566.121094 773.988281 572.179688 771.152344 578.171875 C 768.320312 584.164062 765.339844 590.082031 762.214844 595.925781 C 759.089844 601.773438 755.824219 607.539062 752.417969 613.222656 C 749.011719 618.910156 745.464844 624.507812 741.78125 630.019531 C 738.101562 635.527344 734.285156 640.945312 730.335938 646.269531 C 726.386719 651.59375 722.3125 656.816406 718.105469 661.941406 C 713.902344 667.066406 709.574219 672.082031 705.121094 676.992188 C 700.671875 681.90625 696.101562 686.703125 691.414062 691.390625 C 686.730469 696.078125 681.929688 700.644531 677.019531 705.097656 C 672.109375 709.550781 667.089844 713.875 661.964844 718.082031 C 656.84375 722.285156 651.621094 726.363281 646.296875 730.3125 C 640.972656 734.261719 635.554688 738.074219 630.042969 741.757812 C 624.53125 745.441406 618.933594 748.984375 613.25 752.394531 C 607.5625 755.800781 601.796875 759.066406 595.953125 762.191406 C 590.105469 765.316406 584.1875 768.292969 578.195312 771.128906 C 572.203125 773.960938 566.148438 776.648438 560.023438 779.183594 C 553.898438 781.722656 547.71875 784.105469 541.476562 786.339844 C 535.234375 788.570312 528.945312 790.648438 522.601562 792.574219 C 516.257812 794.5 509.871094 796.265625 503.441406 797.875 C 497.011719 799.488281 490.546875 800.9375 484.046875 802.230469 C 477.546875 803.523438 471.019531 804.65625 464.460938 805.628906 C 457.90625 806.601562 451.328125 807.414062 444.734375 808.0625 C 438.136719 808.710938 431.527344 809.199219 424.90625 809.527344 C 418.289062 809.851562 411.664062 810.011719 405.035156 810.011719 C 398.40625 810.011719 391.78125 809.851562 385.164062 809.527344 C 378.542969 809.199219 371.933594 808.710938 365.339844 808.0625 C 358.742188 807.414062 352.164062 806.601562 345.609375 805.628906 C 339.050781 804.65625 332.523438 803.523438 326.023438 802.230469 C 319.523438 800.9375 313.058594 799.488281 306.628906 797.875 C 300.199219 796.265625 293.8125 794.5 287.46875 792.574219 C 281.125 790.648438 274.835938 788.570312 268.59375 786.339844 C 262.351562 784.105469 256.171875 781.722656 250.046875 779.183594 C 243.921875 776.648438 237.867188 773.960938 231.875 771.128906 C 225.882812 768.292969 219.964844 765.316406 214.117188 762.191406 C 208.273438 759.066406 202.507812 755.800781 196.820312 752.394531 C 191.136719 748.984375 185.539062 745.441406 180.027344 741.757812 C 174.515625 738.074219 169.097656 734.261719 163.773438 730.3125 C 158.453125 726.363281 153.226562 722.285156 148.105469 718.082031 C 142.980469 713.875 137.960938 709.550781 133.050781 705.097656 C 128.140625 700.644531 123.339844 696.078125 118.65625 691.390625 C 113.96875 686.703125 109.398438 681.90625 104.949219 676.992188 C 100.496094 672.082031 96.167969 667.066406 91.964844 661.941406 C 87.757812 656.816406 83.683594 651.59375 79.734375 646.269531 C 75.785156 640.945312 71.96875 635.527344 68.289062 630.019531 C 64.605469 624.507812 61.058594 618.910156 57.652344 613.222656 C 54.246094 607.539062 50.980469 601.773438 47.855469 595.925781 C 44.730469 590.082031 41.75 584.164062 38.917969 578.171875 C 36.082031 572.179688 33.398438 566.121094 30.859375 560 C 28.324219 553.875 25.941406 547.691406 23.707031 541.453125 C 21.472656 535.210938 19.394531 528.917969 17.472656 522.578125 C 15.546875 516.234375 13.78125 509.847656 12.167969 503.417969 C 10.558594 496.988281 9.105469 490.523438 7.8125 484.023438 C 6.519531 477.519531 5.386719 470.992188 4.414062 464.4375 C 3.441406 457.878906 2.632812 451.304688 1.980469 444.707031 C 1.332031 438.109375 0.84375 431.503906 0.519531 424.882812 C 0.195312 418.261719 0.03125 411.636719 0.03125 405.011719 C 0.03125 398.382812 0.195312 391.757812 0.519531 385.136719 C 0.84375 378.515625 1.332031 371.910156 1.980469 365.3125 C 2.632812 358.714844 3.441406 352.140625 4.414062 345.582031 C 5.386719 339.027344 6.519531 332.5 7.8125 325.996094 C 9.105469 319.496094 10.558594 313.03125 12.167969 306.601562 C 13.78125 300.171875 15.546875 293.785156 17.472656 287.445312 C 19.394531 281.101562 21.472656 274.808594 23.707031 268.570312 C 25.941406 262.328125 28.324219 256.144531 30.859375 250.023438 C 33.398438 243.898438 36.082031 237.839844 38.917969 231.847656 C 41.75 225.855469 44.730469 219.9375 47.855469 214.09375 C 50.980469 208.246094 54.246094 202.480469 57.652344 196.796875 C 61.058594 191.113281 64.605469 185.511719 68.289062 180.003906 C 71.96875 174.492188 75.785156 169.074219 79.734375 163.75 C 83.683594 158.425781 87.757812 153.203125 91.964844 148.078125 C 96.167969 142.953125 100.496094 137.9375 104.949219 133.027344 C 109.398438 128.117188 113.96875 123.316406 118.65625 118.628906 C 123.339844 113.941406 128.140625 109.375 133.050781 104.921875 C 137.960938 100.472656 142.980469 96.144531 148.105469 91.9375 C 153.226562 87.734375 158.453125 83.65625 163.773438 79.707031 C 169.097656 75.761719 174.515625 71.945312 180.027344 68.261719 C 185.539062 64.578125 191.136719 61.035156 196.820312 57.628906 C 202.507812 54.21875 208.273438 50.953125 214.117188 47.828125 C 219.964844 44.703125 225.882812 41.726562 231.875 38.890625 C 237.867188 36.058594 243.921875 33.371094 250.046875 30.835938 C 256.171875 28.300781 262.351562 25.914062 268.59375 23.679688 C 274.835938 21.449219 281.125 19.371094 287.46875 17.445312 C 293.8125 15.523438 300.199219 13.753906 306.628906 12.144531 C 313.058594 10.535156 319.523438 9.082031 326.023438 7.789062 C 332.523438 6.496094 339.050781 5.363281 345.609375 4.390625 C 352.164062 3.417969 358.742188 2.605469 365.339844 1.957031 C 371.933594 1.308594 378.542969 0.820312 385.164062 0.496094 C 391.78125 0.167969 398.40625 0.0078125 405.035156 0.0078125 C 411.664062 0.0078125 418.289062 0.167969 424.90625 0.496094 C 431.527344 0.820312 438.136719 1.308594 444.734375 1.957031 C 451.328125 2.605469 457.90625 3.417969 464.460938 4.390625 C 471.019531 5.363281 477.546875 6.496094 484.046875 7.789062 C 490.546875 9.082031 497.011719 10.535156 503.441406 12.144531 C 509.871094 13.753906 516.257812 15.523438 522.601562 17.445312 C 528.945312 19.371094 535.234375 21.449219 541.476562 23.679688 C 547.71875 25.914062 553.898438 28.300781 560.023438 30.835938 C 566.148438 33.371094 572.203125 36.058594 578.195312 38.890625 C 584.1875 41.726562 590.105469 44.703125 595.953125 47.828125 C 601.796875 50.953125 607.5625 54.21875 613.25 57.628906 C 618.933594 61.035156 624.53125 64.578125 630.042969 68.261719 C 635.554688 71.945312 640.972656 75.761719 646.296875 79.707031 C 651.621094 83.65625 656.84375 87.734375 661.964844 91.9375 C 667.089844 96.144531 672.109375 100.472656 677.019531 104.921875 C 681.929688 109.375 686.730469 113.941406 691.414062 118.628906 C 696.101562 123.316406 700.671875 128.117188 705.121094 133.027344 C 709.574219 137.9375 713.902344 142.953125 718.105469 148.078125 C 722.3125 153.203125 726.386719 158.425781 730.335938 163.75 C 734.285156 169.074219 738.101562 174.492188 741.78125 180.003906 C 745.464844 185.511719 749.011719 191.113281 752.417969 196.796875 C 755.824219 202.480469 759.089844 208.246094 762.214844 214.09375 C 765.339844 219.9375 768.320312 225.855469 771.152344 231.847656 C 773.988281 237.839844 776.671875 243.898438 779.210938 250.023438 C 781.746094 256.144531 784.128906 262.328125 786.363281 268.570312 C 788.597656 274.808594 790.675781 281.101562 792.597656 287.445312 C 794.523438 293.785156 796.289062 300.171875 797.902344 306.601562 C 799.511719 313.03125 800.964844 319.496094 802.257812 325.996094 C 803.550781 332.5 804.683594 339.027344 805.65625 345.582031 C 806.628906 352.140625 807.4375 358.714844 808.089844 365.3125 C 808.738281 371.910156 809.226562 378.515625 809.550781 385.136719 C 809.875 391.757812 810.039062 398.382812 810.039062 405.011719 Z M 810.039062 405.011719 " fill-opacity="1" fill-rule="nonzero"/><path fill="#ffffff" d="M 506.691406 425.84375 L 518.148438 337.058594 L 430.21875 337.058594 L 430.21875 280.363281 C 430.21875 254.660156 437.390625 237.144531 474.246094 237.144531 L 521.226562 237.117188 L 521.226562 157.710938 C 513.113281 156.625 485.226562 154.207031 452.726562 154.207031 C 384.933594 154.207031 338.550781 195.59375 338.550781 271.582031 L 338.550781 337.058594 L 261.878906 337.058594 L 261.878906 425.84375 L 338.550781 425.84375 L 338.550781 653.652344 L 430.21875 653.652344 L 430.21875 425.84375 Z M 506.691406 425.84375 " fill-opacity="1" fill-rule="nonzero"/></svg>