<svg xmlns="http://www.w3.org/2000/svg" xmlns:xlink="http://www.w3.org/1999/xlink" width="500" zoomAndPan="magnify" viewBox="0 0 375 374.999991" height="500" preserveAspectRatio="xMidYMid meet" version="1.0"><defs><clipPath id="5a54722673"><path d="M 65.84375 37.5 L 296.050781 37.5 L 296.050781 320.976562 L 65.84375 320.976562 Z M 65.84375 37.5 " clip-rule="nonzero"/></clipPath></defs><path fill="#ffffff" d="M 119.21875 314.542969 C 115.339844 313.238281 78.183594 310.875 72.796875 305.902344 C 67.367188 300.921875 79.246094 270.707031 81.65625 265.976562 C 84.027344 261.246094 84.226562 256.917969 84.226562 256.917969 C 84.226562 256.917969 89.210938 197.339844 108.441406 166.917969 C 127.671875 136.496094 158.332031 122.015625 158.332031 122.015625 L 146.574219 111.128906 L 131.222656 89.679688 C 131.222656 89.679688 122.566406 84.253906 122.238281 82.214844 C 121.914062 80.175781 121.300781 73.367188 122.566406 71.773438 C 123.871094 70.144531 136.9375 61.824219 136.9375 61.824219 C 136.9375 61.824219 137.917969 43.800781 148.082031 42.496094 C 158.207031 41.230469 167.066406 44.65625 167.066406 44.65625 L 176.582031 56.320312 C 176.582031 56.320312 195.402344 45.105469 207.9375 49.429688 C 220.429688 53.75 221.085938 62.601562 221.085938 62.601562 L 218.511719 68.1875 C 218.511719 68.1875 225.617188 76.628906 224.554688 80.910156 C 223.492188 85.234375 205.324219 103.585938 204.015625 106.195312 C 202.753906 108.765625 199.078125 116.554688 199.078125 116.554688 L 223.492188 141.144531 C 223.492188 141.144531 255.011719 184.945312 265.832031 220.996094 C 276.613281 257.003906 278.570312 270.625 278.570312 270.625 C 278.570312 270.625 292.613281 294.15625 290.003906 301.25 C 287.429688 308.390625 267.546875 314.21875 250.03125 315.726562 C 232.558594 317.234375 215.039062 313.363281 215.039062 313.363281 C 215.039062 313.363281 164.496094 316.136719 153.472656 315.484375 C 142.449219 314.875 119.21875 314.542969 119.21875 314.542969 " fill-opacity="1" fill-rule="evenodd"/><g clip-path="url(#5a54722673)"><path fill="#000000" d="M 218.757812 159.945312 C 232.636719 181.234375 251.828125 221.808594 250.480469 247.542969 C 240.394531 219.117188 225.085938 189.019531 218.757812 159.945312 Z M 152.332031 111.496094 C 161.515625 109.050781 171.601562 107.910156 181.277344 108.316406 C 186.585938 108.519531 191.808594 109.171875 196.75 110.3125 C 199.445312 105.789062 203.8125 101.015625 208.265625 96.242188 C 213.285156 90.820312 218.351562 85.316406 220.144531 80.949219 C 221.207031 78.503906 220.59375 76.382812 216.960938 74.753906 C 208.265625 82.910156 205.039062 87.601562 195.28125 100.40625 C 198.75 85.886719 206.222656 74.957031 216.429688 63.617188 C 218.960938 47.835938 187.726562 49.46875 185.199219 58.074219 C 182.910156 65.945312 183.769531 81.238281 180.09375 95.265625 C 178.214844 84.089844 176.867188 49.917969 160.824219 46.042969 C 159.390625 45.71875 157.882812 45.59375 156.289062 45.636719 C 153.105469 45.796875 149.921875 46.777344 147.308594 48.527344 C 144.941406 50.082031 143.140625 52.28125 142.492188 54.972656 C 142.40625 55.382812 142.328125 55.828125 142.285156 56.277344 C 153.636719 69.984375 158.25 75.039062 158.003906 94.164062 C 149.308594 77.933594 149.59375 76.546875 138.488281 65.820312 C 137.101562 67.046875 135.46875 68.144531 133.753906 69.328125 C 130.242188 71.695312 126.242188 74.386719 125.875 78.382812 C 125.546875 81.847656 129.222656 85.070312 134.039062 89.351562 C 139.917969 94.53125 147.144531 100.890625 152.332031 111.496094 Z M 215.082031 117.816406 C 218.632812 118.347656 222.183594 117.898438 225.535156 116.71875 C 230.3125 115.003906 234.558594 111.824219 237.539062 107.910156 C 238.070312 107.214844 238.273438 105.136719 237.742188 103.300781 C 237.578125 102.808594 237.375 102.359375 237.128906 102.199219 C 236.886719 101.996094 236.433594 101.953125 235.703125 102.035156 C 231.863281 102.605469 225.453125 106.726562 215.082031 117.816406 Z M 235.375 129.238281 C 231.78125 128.625 227.941406 128.296875 224.308594 128.054688 C 224.390625 128.707031 224.347656 129.320312 224.269531 129.929688 C 234.269531 135.558594 241.214844 136.617188 245.253906 135.597656 C 246.273438 135.355469 246.96875 135.027344 247.417969 134.617188 C 247.625 134.414062 247.746094 134.253906 247.746094 134.128906 C 247.785156 133.925781 247.582031 133.640625 247.214844 133.355469 C 244.804688 131.359375 240.355469 130.09375 235.375 129.238281 Z M 235.171875 121 C 235.660156 121.039062 236.1875 121.121094 236.679688 121.242188 C 242.925781 122.261719 248.726562 124.058594 252.359375 127.074219 C 255.09375 129.320312 256.238281 132.292969 255.828125 135.230469 C 255.542969 137.1875 254.601562 139.023438 252.929688 140.574219 C 251.542969 141.878906 249.582031 142.9375 247.214844 143.511719 C 242.886719 144.570312 236.515625 144.203125 228.269531 140.898438 C 258.484375 174.546875 277.589844 229.515625 284.734375 273.316406 C 297.066406 286.734375 301.636719 301.128906 286.488281 310.835938 C 273.710938 318.992188 245.539062 319.113281 222.714844 317.480469 C 218.71875 317.15625 215.285156 317.113281 212.429688 317.074219 C 192.628906 320.949219 164.171875 322.945312 143.632812 318.21875 L 143.140625 318.21875 C 115.746094 318.089844 67.652344 317.929688 66.019531 302.921875 C 64.589844 289.710938 72.222656 274.460938 77.410156 264.097656 C 78.183594 262.546875 78.921875 261.121094 79.574219 259.695312 C 79.125 228.945312 87.65625 199.992188 99.785156 176.582031 C 109.828125 157.253906 122.402344 141.636719 134.613281 131.683594 C 132.8125 131.519531 131.101562 130.582031 129.996094 128.992188 C 128.117188 126.21875 128.855469 122.386719 131.671875 120.507812 C 135.425781 117.980469 139.753906 115.777344 144.492188 114.023438 C 139.957031 105.421875 133.753906 99.914062 128.652344 95.429688 C 122.074219 89.597656 117.054688 85.191406 117.789062 77.648438 C 118.523438 69.820312 124.199219 65.984375 129.179688 62.601562 C 131.835938 60.847656 134.160156 59.257812 134.078125 58.238281 C 134 56.441406 134.203125 54.730469 134.570312 53.097656 C 135.753906 48.246094 138.816406 44.371094 142.816406 41.722656 C 146.613281 39.191406 151.308594 37.765625 155.925781 37.519531 C 158.207031 37.4375 160.496094 37.601562 162.699219 38.132812 C 168.949219 39.640625 173.886719 45.757812 177.765625 50.527344 L 179.152344 52.242188 C 182.992188 46.898438 191.199219 43.800781 199.570312 43.554688 C 203.488281 43.433594 207.488281 43.921875 211.042969 45.023438 C 214.875 46.203125 218.265625 48.164062 220.757812 50.9375 C 224.59375 55.257812 226.105469 61.253906 223.410156 69.003906 C 229.578125 72.835938 230.148438 78.054688 227.699219 84.050781 C 225.328125 89.761719 219.777344 95.796875 214.226562 101.75 C 210.671875 105.585938 207.160156 109.375 204.835938 112.722656 C 205.8125 113.085938 206.753906 113.453125 207.695312 113.859375 C 220.429688 99.996094 229.003906 94.777344 234.558594 94 C 237.617188 93.554688 240.027344 94.246094 241.945312 95.632812 C 243.785156 96.980469 244.925781 98.898438 245.539062 101.015625 C 246.765625 105.136719 245.746094 110.515625 244.027344 112.839844 C 241.621094 115.980469 238.597656 118.796875 235.171875 121 Z M 155.925781 204.148438 C 152.984375 206.3125 151.511719 209.535156 151.511719 213.816406 L 151.511719 213.855469 C 151.511719 216.832031 152.414062 219.199219 154.125 220.871094 C 154.453125 221.199219 154.820312 221.480469 155.1875 221.769531 C 155.269531 215.648438 155.515625 209.65625 155.925781 204.148438 Z M 180.175781 242.484375 C 180.335938 249.296875 180.664062 255.902344 181.113281 261.898438 C 184.214844 259.652344 185.769531 256.351562 185.769531 251.902344 L 185.769531 251.863281 C 185.769531 248.96875 184.992188 246.726562 183.441406 245.054688 C 182.5 244.035156 181.441406 243.222656 180.175781 242.484375 Z M 172.378906 264.914062 C 171.765625 257.289062 171.355469 248.5625 171.152344 239.671875 C 170.132812 239.46875 169.027344 239.265625 167.882812 239.058594 C 167.765625 239.019531 167.640625 239.019531 167.519531 239.019531 C 167.394531 239.019531 167.273438 238.976562 167.152344 238.9375 C 166.90625 238.898438 166.660156 238.855469 166.417969 238.816406 C 166.171875 238.773438 165.925781 238.734375 165.679688 238.691406 C 165.148438 238.613281 164.621094 238.527344 164.089844 238.449219 C 164.25 247.992188 164.699219 257.332031 165.394531 265.28125 C 165.71875 265.28125 166.046875 265.28125 166.375 265.28125 C 168.539062 265.28125 170.539062 265.160156 172.378906 264.914062 Z M 172.132812 200.847656 C 171.3125 200.808594 170.5 200.765625 169.679688 200.765625 C 168.046875 200.765625 166.496094 200.847656 165.109375 201.011719 C 164.496094 208.308594 164.171875 216.792969 164.046875 225.519531 C 166.046875 226.011719 168.417969 226.5 171.070312 227.027344 L 171.113281 226.375 C 171.152344 217.40625 171.519531 208.636719 172.132812 200.847656 Z M 157.597656 276.699219 C 156.289062 276.496094 155.023438 276.25 153.757812 275.96875 C 149.800781 275.027344 146.082031 273.644531 142.613281 271.765625 C 140.941406 270.871094 139.34375 269.808594 137.714844 268.75 C 130.773438 264.222656 137.425781 252.597656 148.125 259.855469 C 149.757812 261 151.472656 261.9375 153.269531 262.714844 C 154.25 263.121094 155.269531 263.488281 156.289062 263.8125 C 155.636719 255.578125 155.269531 246.15625 155.148438 236.609375 C 153.515625 236.203125 152.082031 235.796875 150.738281 235.347656 C 146.941406 234.125 143.714844 231.882812 140.980469 228.660156 C 138.285156 225.398438 136.9375 220.789062 136.9375 214.835938 L 136.9375 214.753906 C 136.9375 208.921875 138.164062 204.109375 140.574219 200.277344 C 143.019531 196.441406 146.652344 193.546875 151.472656 191.589844 C 153.269531 190.898438 155.269531 190.285156 157.390625 189.835938 C 158.046875 185.515625 158.820312 181.804688 159.761719 179.070312 C 160.574219 176.746094 163.105469 175.523438 165.476562 176.339844 C 167.804688 177.113281 169.027344 179.683594 168.253906 182.007812 C 167.597656 183.804688 167.066406 186.085938 166.578125 188.777344 C 167.597656 188.738281 168.621094 188.695312 169.679688 188.695312 C 170.949219 188.695312 172.253906 188.738281 173.519531 188.816406 C 174.132812 184.945312 174.90625 181.601562 175.761719 179.070312 C 176.582031 176.746094 179.113281 175.523438 181.441406 176.339844 C 183.769531 177.113281 185.03125 179.683594 184.214844 182.007812 C 183.480469 184.085938 182.867188 186.902344 182.339844 190.246094 C 184.417969 190.773438 186.460938 191.425781 188.542969 192.203125 C 189.933594 192.734375 191.320312 193.34375 192.710938 193.996094 C 201.121094 197.953125 193.402344 208.476562 185.359375 204.640625 C 183.890625 203.90625 182.378906 203.292969 180.949219 202.765625 C 180.421875 209.945312 180.09375 218.097656 180.050781 226.460938 C 180.050781 227.273438 180.011719 228.089844 180.011719 228.945312 C 182.867188 229.679688 185.402344 230.496094 187.601562 231.390625 C 191.238281 232.902344 194.261719 235.269531 196.707031 238.613281 C 199.117188 241.914062 200.34375 246.402344 200.34375 252.109375 L 200.34375 252.191406 C 200.34375 257.820312 199.078125 262.507812 196.589844 266.21875 C 194.058594 269.929688 190.257812 272.746094 185.277344 274.578125 C 184.378906 274.902344 183.441406 275.234375 182.460938 275.480469 C 182.789062 277.839844 183.15625 279.960938 183.523438 281.757812 C 184.050781 284.164062 182.5 286.570312 180.09375 287.054688 C 177.644531 287.589844 175.277344 286.042969 174.746094 283.632812 C 174.375 281.71875 174.007812 279.511719 173.640625 277.023438 C 171.476562 277.230469 169.191406 277.351562 166.742188 277.351562 C 166.988281 278.984375 167.273438 280.453125 167.558594 281.757812 C 168.046875 284.164062 166.496094 286.570312 164.089844 287.054688 C 161.679688 287.589844 159.273438 286.042969 158.78125 283.632812 C 158.371094 281.632812 157.964844 279.3125 157.597656 276.699219 Z M 107.011719 180.292969 C 95.007812 203.496094 86.675781 232.289062 87.78125 262.714844 C 83.617188 268.867188 73.328125 294.644531 74.101562 302.066406 C 74.757812 307.738281 98.191406 309.324219 120.402344 309.855469 C 113.542969 306.386719 107.09375 302.1875 101.292969 297.335938 C 123.382812 312.425781 205.855469 322.332031 239.90625 295.664062 C 249.417969 288.199219 248.273438 284.9375 249.824219 273.4375 C 253.992188 290.238281 251.542969 301.25 234.679688 309.894531 C 253.582031 310.589844 273.546875 309.527344 282.242188 303.980469 C 295.429688 295.542969 265.832031 257.535156 257.828125 252.882812 C 262.730469 254.679688 268.28125 258.066406 273.589844 262.386719 C 264.851562 222.582031 240.191406 148.402344 200.710938 129.195312 C 199.894531 128.910156 199.078125 128.625 198.261719 128.378906 C 202.792969 132.703125 206.265625 138.003906 209.691406 144.203125 C 200.875 138.453125 191.648438 130.828125 180.789062 127.277344 C 164.292969 131.359375 157.066406 149.21875 152.003906 158.027344 C 151.921875 158.027344 151.964844 158.027344 151.921875 157.988281 L 151.878906 157.988281 C 152.082031 158.3125 151.878906 158.394531 151.390625 158.355469 C 151.390625 158.355469 151.1875 158.066406 151.144531 158.066406 C 151.105469 158.109375 151.144531 158.191406 151.144531 158.230469 C 151.023438 158.152344 150.941406 158.066406 150.902344 157.945312 C 147.796875 148.363281 153.839844 134.617188 165.394531 126.21875 C 138 130.582031 119.054688 157.171875 107.011719 180.292969 " fill-opacity="1" fill-rule="nonzero"/></g></svg>