<svg xmlns="http://www.w3.org/2000/svg" xmlns:xlink="http://www.w3.org/1999/xlink" width="1080" zoomAndPan="magnify" viewBox="0 0 810 809.999993" height="1080" preserveAspectRatio="xMidYMid meet" version="1.0"><path stroke-linecap="butt" transform="matrix(4.151717, 0, 0, 4.153131, -192.224473, -750.084782)" fill="none" stroke-linejoin="miter" d="M 64.829608 378.380463 L 48.000162 378.380463 C 48.137529 378.126513 48.290892 377.882909 48.46025 377.649652 L 53.740445 371.509706 L 93.739902 324.959737 C 103.306727 313.83955 112.86979 302.716542 122.43003 291.589772 C 122.600328 291.399779 122.749928 291.190035 122.909876 290.980292 L 122.440379 290.259826 L 94.439913 249.499917 C 79.106459 227.126925 63.742897 204.752993 48.350167 182.380001 C 48.209036 182.133575 48.082959 181.880566 47.970053 181.620032 L 105.190361 181.620032 C 105.317379 181.882447 105.461333 182.135457 105.620341 182.380001 L 154.279619 253.249911 L 154.769815 253.940279 C 155.030438 253.649647 155.240253 253.420152 155.450069 253.169964 L 216.359551 182.319805 C 216.549607 182.099715 216.709556 181.859874 216.890205 181.620032 L 233.88995 181.620032 C 233.689543 181.87022 233.500427 182.129813 233.289671 182.380001 L 220.99995 196.719709 L 163.519961 263.56028 L 162.359861 264.929728 C 162.569677 265.250458 162.750325 265.540149 162.94979 265.820434 L 226.319663 358.100207 C 230.75307 364.546774 235.179891 370.999925 239.600126 377.459659 C 239.764779 377.754053 239.901206 378.060674 240.010348 378.380463 L 182.939639 378.380463 C 181.210309 375.840023 179.490388 373.299583 177.749768 370.770429 L 131.000468 302.670455 C 130.849928 302.450365 130.689979 302.250027 130.510272 302.010185 C 130.279757 302.250027 130.10005 302.440019 129.929751 302.640357 L 123.030309 310.639781 L 71.7601 370.2804 C 69.4399 372.999546 67.1404 375.680129 64.829608 378.380463 Z M 217.000287 366.129729 L 216.240059 365.019873 L 132.720389 245.540178 C 120.993312 228.739977 109.263413 211.943539 97.52975 195.149922 C 97.461066 195.032352 97.378269 194.92701 97.279477 194.832955 C 97.181626 194.738899 97.072484 194.659893 96.952993 194.595935 C 96.832561 194.532918 96.705542 194.48683 96.572879 194.458614 C 96.440215 194.430397 96.30567 194.420991 96.170184 194.430397 C 88.100292 194.430397 80.039808 194.430397 71.969915 194.430397 C 71.689534 194.430397 71.410094 194.430397 70.969764 194.430397 L 71.669776 195.430207 C 84.6501 214.029691 97.650182 232.623531 110.670022 251.209846 C 137.24318 289.210166 163.813514 327.243406 190.380086 365.309565 C 190.451592 365.434658 190.538153 365.546585 190.641649 365.646283 C 190.744205 365.745982 190.858992 365.828751 190.985069 365.896471 C 191.112087 365.963251 191.244751 366.012159 191.384941 366.041317 C 191.525132 366.071414 191.667204 366.08082 191.810217 366.070474 C 199.809544 366.070474 207.846506 366.070474 215.920162 366.070474 Z M 217.000287 366.129729 " stroke="#000000" stroke-width="2" stroke-opacity="1" stroke-miterlimit="10"/></svg>